<svg width="70" height="68" viewBox="0 0 70 68" fill="none" xmlns="http://www.w3.org/2000/svg">
<path d="M56.56 2.10004C54.04 4.20004 54.18 4.34004 58.52 3.50004C65.66 2.10004 67.2 4.34004 67.2 16.24C67.2 22.26 67.76 26.6 68.6 26.6C69.44 26.6 70 22.12 70 16.1C70 7.42004 69.44 5.04004 67.2 2.80004C63.84 -0.559963 60.34 -0.699963 56.56 2.10004Z" fill="#9A6852"/>
<path d="M49.84 9.24002C45.5 13.44 47.04 15.4 54.6 15.4C59.78 15.4 61.6 14.84 61.6 13.44C61.6 10.64 57.68 7.00002 54.6 7.00002C53.2 7.00002 50.96 7.98002 49.84 9.24002Z" fill="#9A6852"/>
<path d="M49 18.2C49 18.9 49.7 19.6 50.4 19.6C51.24 19.6 51.8 18.9 51.8 18.2C51.8 17.36 51.24 16.8 50.4 16.8C49.7 16.8 49 17.36 49 18.2Z" fill="#9A6852"/>
<path d="M53.2 18.2C53.2 18.9 53.9 19.6 54.6 19.6C55.44 19.6 56 18.9 56 18.2C56 17.36 55.44 16.8 54.6 16.8C53.9 16.8 53.2 17.36 53.2 18.2Z" fill="#9A6852"/>
<path d="M57.4 18.2C57.4 18.9 58.1 19.6 58.8 19.6C59.64 19.6 60.2 18.9 60.2 18.2C60.2 17.36 59.64 16.8 58.8 16.8C58.1 16.8 57.4 17.36 57.4 18.2Z" fill="#9A6852"/>
<path d="M47.6 22.4C47.6 23.1 48.3 23.8 49 23.8C49.84 23.8 50.4 23.1 50.4 22.4C50.4 21.56 49.84 21 49 21C48.3 21 47.6 21.56 47.6 22.4Z" fill="#9A6852"/>
<path d="M53.2 22.4C53.2 23.1 53.9 23.8 54.6 23.8C55.44 23.8 56 23.1 56 22.4C56 21.56 55.44 21 54.6 21C53.9 21 53.2 21.56 53.2 22.4Z" fill="#9A6852"/>
<path d="M58.8 22.4C58.8 23.1 59.5 23.8 60.2 23.8C61.04 23.8 61.6 23.1 61.6 22.4C61.6 21.56 61.04 21 60.2 21C59.5 21 58.8 21.56 58.8 22.4Z" fill="#9A6852"/>
<path d="M46.2 26.6C46.2 27.3 46.9 28 47.6 28C48.44 28 49 27.3 49 26.6C49 25.76 48.44 25.2 47.6 25.2C46.9 25.2 46.2 25.76 46.2 26.6Z" fill="#9A6852"/>
<path d="M53.2 26.6C53.2 27.3 53.9 28 54.6 28C55.44 28 56 27.3 56 26.6C56 25.76 55.44 25.2 54.6 25.2C53.9 25.2 53.2 25.76 53.2 26.6Z" fill="#9A6852"/>
<path d="M60.2 26.6C60.2 27.3 60.9 28 61.6 28C62.44 28 63 27.3 63 26.6C63 25.76 62.44 25.2 61.6 25.2C60.9 25.2 60.2 25.76 60.2 26.6Z" fill="#9A6852"/>
<path d="M0 32.2C0 34.86 0.98 35 35 35C69.02 35 70 34.86 70 32.2C70 29.54 69.02 29.4 35 29.4C0.98 29.4 0 29.54 0 32.2Z" fill="#9A6852"/>
<path d="M4.19999 45.08C5.17999 54.18 7.27999 58.1 12.32 60.76C15.54 62.44 15.82 62.86 13.72 63.7C12.32 64.26 11.2 65.24 11.2 65.94C11.2 67.9 14.84 67.34 16.8 65.1C19.32 62.02 50.68 62.02 53.2 65.1C55.16 67.34 58.8 67.9 58.8 65.94C58.8 65.24 57.68 64.26 56.42 63.7C54.18 62.86 54.46 62.44 57.68 60.76C62.72 58.1 64.82 54.18 65.8 45.08L66.64 37.8H35H3.35999L4.19999 45.08Z" fill="#9A6852"/>
</svg>
