<svg width="61" height="42" viewBox="0 0 61 42" fill="none" xmlns="http://www.w3.org/2000/svg">
<path d="M14.9 1.86668C7.90001 3.96668 4.16667 9.80001 6.03334 14.9333C7.20001 17.9667 8.83334 18.4333 12.8 17.0333C18.4 14.9333 39.8667 14.7 49.6667 16.3333C54.1 17.2667 55.7333 16.3333 56.2 12.6C56.6667 10.0333 55.2667 6.53335 53.4 4.66668C49.2 1.40001 23.0667 -0.699987 14.9 1.86668Z" fill="#9A6852"/>
<path d="M1.13334 25.9C1.60001 31.5 3.70001 34.7667 8.13334 37.1C15.3667 41.3 15.8333 40.8333 17.9333 31.9667C19.1 26.8333 18.6333 25.6667 15.1333 25.6667C13.0333 25.6667 8.60001 24.0333 5.80001 21.9333C0.43334 18.2 0.43334 18.2 1.13334 25.9Z" fill="#9A6852"/>
<path d="M55.0333 22.1667C52.2333 24.2667 43.8333 26.6 36.3667 27.5333C24 28.9333 22.8333 29.6333 22.8333 35C22.8333 41.7667 27.0333 43.1667 41.2667 41.0667C54.5667 38.9667 62.0333 32.9 60.8667 24.9667C60.1667 18.9 59.9333 18.6667 55.0333 22.1667ZM54.3333 30.3333C54.3333 31.5 53.4 32.6667 52 32.6667C50.8333 32.6667 49.6667 31.5 49.6667 30.3333C49.6667 28.9333 50.8333 28 52 28C53.4 28 54.3333 28.9333 54.3333 30.3333ZM33.3333 35C33.3333 36.1667 32.4 37.3333 31 37.3333C29.8333 37.3333 28.6667 36.1667 28.6667 35C28.6667 33.6 29.8333 32.6667 31 32.6667C32.4 32.6667 33.3333 33.6 33.3333 35Z" fill="#9A6852"/>
</svg>
