<svg width="65" height="63" viewBox="0 0 65 63" fill="none" xmlns="http://www.w3.org/2000/svg">
<path d="M34.7095 4.18702C34.0774 4.51076 33.7334 4.73083 33.2804 5.10086C31.4998 6.54792 30.3146 8.91242 29.9687 11.7026C29.8212 12.9124 29.8181 13.8605 29.9656 15.229C30.0836 16.2927 30.2675 17.1685 30.5339 17.9305C31.5662 20.8695 33.5244 22.9256 35.8495 23.4976C37.2699 23.8532 38.5086 23.67 39.5698 22.947C42.0239 21.2837 43.5227 18.4291 43.778 14.9282C43.8987 13.2528 43.6684 11.3622 43.1488 9.80044C42.7564 8.61243 42.6146 8.25064 42.364 7.77052C41.6228 6.35808 40.4254 5.10875 39.1878 4.46975C38.194 3.95334 37.3318 3.75343 36.2858 3.79382C35.5739 3.81972 35.2835 3.89363 34.7095 4.18702Z" fill="white"/>
<path d="M15.7641 8.62208C14.1925 9.28674 12.925 10.9776 12.4429 13.0456C12.2373 13.9397 12.1967 14.7016 12.2948 15.8692C12.3557 16.6212 12.7407 18.3343 13.0172 19.1028C14.3193 22.7036 16.7202 25.3826 19.6745 26.5227C20.2851 26.7575 21.2549 26.9938 21.8879 27.0592C22.3484 27.1071 22.4376 27.1 22.9526 27.0059C23.3505 26.9295 23.6153 26.857 23.8676 26.7484C25.015 26.2742 25.9582 25.3917 26.5589 24.2357C27.2798 22.8451 27.5661 21.1369 27.3957 19.2241C27.3486 18.7069 26.9692 17.0185 26.7715 16.466C25.6378 13.2685 23.8569 10.9044 21.5201 9.49153C20.4041 8.81654 19.3462 8.45731 18.1067 8.32922C17.2215 8.23831 16.4351 8.33717 15.7641 8.62208Z" fill="white"/>
<path d="M50.3667 16.6358C48.7607 17.2822 47.4561 18.3844 46.4309 19.9602C45.7572 21.0027 45.2831 22.087 44.9554 23.3416C44.5542 24.8853 44.4641 26.0044 44.5929 27.9049C44.6532 28.7695 44.9299 30.0008 45.2157 30.6764C45.8187 32.0896 46.662 33.1676 47.7268 33.8843C48.6697 34.5204 49.6844 34.8028 50.7394 34.7257C51.45 34.6742 52.406 34.3296 53.27 33.8066C56.3459 31.9473 58.2157 27.5688 57.7662 23.2789C57.7324 22.975 57.6891 22.6473 57.6669 22.5484C57.6437 22.4455 57.6115 22.2061 57.5978 22.0102C57.5732 21.7086 57.5377 21.5695 57.3639 21.0851C56.9446 19.9118 56.5888 19.252 55.9466 18.4533C54.8908 17.1418 53.4415 16.3687 51.9725 16.3354C51.5163 16.3255 50.8101 16.4539 50.3667 16.6358Z" fill="white"/>
<path d="M8.22889 27.1958C8.16488 27.2188 7.94044 27.3168 7.73659 27.4102C6.18075 28.1449 5.09763 29.6169 4.92369 31.248C4.86877 31.7925 4.86403 32.4641 4.91488 33.0366C4.94304 33.3158 4.97509 33.6893 4.99245 33.8628C5.03159 34.3255 5.11612 34.644 5.38714 35.4266C5.68902 36.2889 5.84002 36.653 6.1835 37.3155C6.92015 38.7463 8.1149 40.1952 9.39645 41.2223C9.85954 41.5898 10.8023 42.1869 11.3324 42.4485C12.6386 43.085 14.1061 43.4387 15.5 43.4456C16.1017 43.4488 16.8778 43.2658 17.4011 42.9967C18.8425 42.2532 19.8728 40.6806 20.0829 38.9029C20.139 38.4404 20.1246 37.626 20.0488 36.9811C19.9805 36.3692 19.6089 34.8694 19.3869 34.305C17.9994 30.8056 15.0989 28.135 11.6329 27.1619C10.7706 26.9231 10.3829 26.8718 9.68104 26.904C9.33972 26.9245 8.55715 27.0787 8.22889 27.1958Z" fill="white"/>
<path d="M31.7503 32.4826C28.6143 33.555 25.9745 35.5846 24.0865 38.3622C23.5795 39.1078 23.3076 39.6101 22.8202 40.693C21.581 43.4331 20.7181 46.2313 20.2876 48.876C20.0844 50.146 20.0043 51.2325 19.9659 53.2744C19.9531 53.9868 19.965 54.1744 20.0536 54.665C20.4079 56.5494 21.7596 58.1577 23.5674 58.833C24.6488 59.2388 25.5275 59.262 26.8879 58.9087C28.4986 58.4948 29.5026 57.9793 32.501 56.025C34.7642 54.5516 35.8432 53.9847 37.2771 53.5153C38.5747 53.0939 38.7622 53.0432 39.4063 52.946C40.9387 52.7227 42.275 52.7815 44.7054 53.187C48.7069 53.8494 48.6314 53.8405 49.3461 53.8269C50.2851 53.8106 51.0522 53.7031 51.4307 53.5401C51.5322 53.4914 51.806 53.3822 52.0355 53.2874C53.2981 52.7874 54.3108 51.8676 54.816 50.7677C55.2465 49.836 55.2956 48.9382 55.0013 47.6286C54.6482 46.0771 53.837 44.6414 52.0638 42.427C51.3371 41.5218 50.9747 41.1403 49.2467 39.4738C45.3656 35.7301 42.4077 33.7084 39.1142 32.5408C37.3532 31.9199 35.8903 31.7598 33.9515 31.9835C33.5041 32.0322 32.1838 32.3332 31.7503 32.4826Z" fill="white"/>
</svg>
